<svg width="84" height="84" viewBox="0 0 84 84" fill="none" xmlns="http://www.w3.org/2000/svg">
<path d="M1.74324 31.9654L1.74327 31.9652C7.28409 9.73062 29.8041 -3.80078 52.0348 1.74198L52.1557 1.25683L52.0348 1.74199C74.2707 7.28476 87.8011 29.806 82.2577 52.0394C76.7143 74.2713 54.1943 87.8015 31.957 82.2574C9.72894 76.7147 -3.80274 54.196 1.74324 31.9654Z" fill="#F7931A" stroke="white"/>
<path d="M60.5196 36.0165C61.3557 30.4279 57.1002 27.4237 51.2812 25.4195L53.1688 17.8491L48.5601 16.7006L46.7224 24.0715C45.5109 23.7697 44.2665 23.4849 43.03 23.2027L44.8808 15.7832L40.2747 14.6348L38.3859 22.2026C37.383 21.9742 36.3985 21.7485 35.4429 21.5109L35.4482 21.4873L29.0924 19.9005L27.8664 24.8223C27.8664 24.8223 31.2858 25.6058 31.2136 25.6544C33.0802 26.1203 33.4175 27.3554 33.3611 28.3345L31.211 36.9589C31.3396 36.9917 31.5063 37.0389 31.6901 37.1124C31.5365 37.0744 31.3724 37.0323 31.2031 36.9917L28.1893 49.0731C27.9609 49.6401 27.382 50.4906 26.0773 50.1677C26.1232 50.2347 22.7274 49.3317 22.7274 49.3317L20.4395 54.6066L26.4369 56.1015C27.5526 56.381 28.6461 56.6737 29.7224 56.9493L27.8152 64.6064L32.4186 65.7548L34.3075 58.1791C35.565 58.5204 36.7858 58.8354 37.9803 59.132L36.0979 66.6723L40.7066 67.8207L42.6139 60.1781C50.4726 61.6651 56.3822 61.0653 58.8696 53.9582C60.874 48.2357 58.7698 44.9349 54.635 42.7824C57.6462 42.0881 59.9144 40.1075 60.5196 36.0165ZM49.9896 50.7807C48.5654 56.5031 38.9293 53.4096 35.8052 52.6339L38.336 42.4897C41.4601 43.2693 51.4781 44.8128 49.9896 50.7807ZM51.4151 35.9338C50.1156 41.1391 42.0954 38.4945 39.4937 37.8461L41.7882 28.6456C44.3899 29.294 52.7684 30.504 51.4151 35.9338Z" fill="white"/>
</svg>
